<?xml version="1.0" encoding="UTF-8" standalone="no"?><!DOCTYPE svg PUBLIC "-//W3C//DTD SVG 1.1//EN" "http://www.w3.org/Graphics/SVG/1.1/DTD/svg11.dtd"><svg width="100%" height="100%" viewBox="0 0 20 20" version="1.1" xmlns="http://www.w3.org/2000/svg" xmlns:xlink="http://www.w3.org/1999/xlink" xml:space="preserve" style="fill-rule:evenodd;clip-rule:evenodd;stroke-linejoin:round;stroke-miterlimit:1.41421;"><path d="M2.767,0.959c-0.499,-0.499 -1.309,-0.499 -1.808,0c-0.499,0.499 -0.499,1.309 0,1.808l16.274,16.274c0.499,0.499 1.309,0.499 1.808,0c0.499,-0.499 0.499,-1.309 0,-1.808l-16.274,-16.274Z" style="fill:#727270;"/><path d="M19.041,2.767c0.499,-0.499 0.499,-1.309 0,-1.808c-0.499,-0.499 -1.309,-0.499 -1.808,0l-16.274,16.274c-0.499,0.499 -0.499,1.309 0,1.808c0.499,0.499 1.309,0.499 1.808,0l16.274,-16.274Z" style="fill:#727270;"/></svg>