<?xml version="1.0" encoding="UTF-8" standalone="no"?><!DOCTYPE svg PUBLIC "-//W3C//DTD SVG 1.1//EN" "http://www.w3.org/Graphics/SVG/1.1/DTD/svg11.dtd"><svg width="100%" height="100%" viewBox="0 0 80 60" version="1.1" xmlns="http://www.w3.org/2000/svg" xmlns:xlink="http://www.w3.org/1999/xlink" xml:space="preserve" style="fill-rule:evenodd;clip-rule:evenodd;stroke-linejoin:round;stroke-miterlimit:1.41421;"><path d="M80,6c0,-3.311 -2.689,-6 -6,-6l-68,0c-3.311,0 -6,2.689 -6,6c0,3.311 2.689,6 6,6l68,0c3.311,0 6,-2.689 6,-6Z" style="fill:#727270;"/><path d="M80,30c0,-3.311 -2.689,-6 -6,-6l-68,0c-3.311,0 -6,2.689 -6,6c0,3.311 2.689,6 6,6l68,0c3.311,0 6,-2.689 6,-6Z" style="fill:#727270;"/><path d="M80,54c0,-3.311 -2.689,-6 -6,-6l-68,0c-3.311,0 -6,2.689 -6,6c0,3.311 2.689,6 6,6l68,0c3.311,0 6,-2.689 6,-6Z" style="fill:#727270;"/></svg>