<?xml version="1.0" encoding="UTF-8" standalone="no"?><!DOCTYPE svg PUBLIC "-//W3C//DTD SVG 1.1//EN" "http://www.w3.org/Graphics/SVG/1.1/DTD/svg11.dtd"><svg width="100%" height="100%" viewBox="0 0 20 20" version="1.1" xmlns="http://www.w3.org/2000/svg" xmlns:xlink="http://www.w3.org/1999/xlink" xml:space="preserve" style="fill-rule:evenodd;clip-rule:evenodd;stroke-linejoin:round;stroke-miterlimit:1.41421;"><path d="M12,2c0,-1.104 -0.896,-2 -2,-2c-1.104,0 -2,0.896 -2,2l0,16c0,1.104 0.896,2 2,2c1.104,0 2,-0.896 2,-2l0,-16Z" style="fill:#fff;"/><path d="M18,12c1.104,0 2,-0.896 2,-2c0,-1.104 -0.896,-2 -2,-2l-16,0c-1.104,0 -2,0.896 -2,2c0,1.104 0.896,2 2,2l16,0Z" style="fill:#fff;"/></svg>