<?xml version="1.0" encoding="UTF-8" standalone="no"?><!DOCTYPE svg PUBLIC "-//W3C//DTD SVG 1.1//EN" "http://www.w3.org/Graphics/SVG/1.1/DTD/svg11.dtd"><svg width="100%" height="100%" viewBox="0 0 80 80" version="1.1" xmlns="http://www.w3.org/2000/svg" xmlns:xlink="http://www.w3.org/1999/xlink" xml:space="preserve" style="fill-rule:evenodd;clip-rule:evenodd;stroke-linejoin:round;stroke-miterlimit:1.41421;"><path d="M78.244,78.244c2.341,-2.342 2.341,-6.144 0,-8.485l-21.957,-21.957c-2.341,-2.342 -6.144,-2.342 -8.485,0c-2.342,2.341 -2.342,6.144 0,8.485l21.957,21.957c2.341,2.341 6.143,2.341 8.485,0Z" style="fill:#727270;"/><path d="M30.62,0c16.899,0 30.619,13.72 30.619,30.62c0,16.899 -13.72,30.619 -30.619,30.619c-16.9,0 -30.62,-13.72 -30.62,-30.619c0,-16.9 13.72,-30.62 30.62,-30.62Zm0,10.717c10.984,0 19.903,8.918 19.903,19.903c0,10.984 -8.919,19.903 -19.903,19.903c-10.985,0 -19.903,-8.919 -19.903,-19.903c0,-10.985 8.918,-19.903 19.903,-19.903Z" style="fill:#727270;"/></svg>